<svg xmlns="http://www.w3.org/2000/svg">
    <symbol id="canting" viewBox="0 0 1024 1024">
      <path fill="#333333" d="M827.752937 960.298013c-0.085 38.139992-9.874998 62.354988-46.204991 62.289988-36.269993-0.08-44.204991-24.444995-44.119991-62.609987l-1.15-361.278928c-1.325 0.15-102.914979-13.824997-137.129973-116.074977 0 0 41.639992-483.008903 198.09896-482.623903 39.934992 0.085 28.519994 105.726979 28.519994 105.726979L827.752937 960.298013zM363.64703 473.40611l-18.536996 0 26.131995 488.080902c0 38.169992-34.451993 62.509987-70.761986 62.509987s-68.864986-24.339995-68.864986-62.509987l27.179995-487.610902-19.604996-0.385c-14.891997 0-86.784983-131.901974-86.784983-154.941969l33.769993-316.201937c0.088 0.405 47.316991 1.855 47.316991 1.855l-0.66 208.211958c0 23.979995-0.64 42.389992 23.189995 42.389992 23.826995 0 24.169995-18.431996 24.169995-42.389992L280.192046 4.202204l64.959987 0 0 210.986958c0 23.976995 3.134999 39.274992 26.964995 39.274992 23.829995 0 23.424995-15.296997 23.424995-39.274992L395.542023 4.202204c0 0 37.331993 0 39.421992 0l33.216993 314.346937C468.181009 341.782136 378.347027 473.40611 363.64703 473.40611z"/>
    </symbol>
    <symbol id="chufang" viewBox="0 0 1024 1024">
      <path fill="#333333" d="M857.088 334.08c-9.216 0-17.92-5.632-21.504-14.592-4.608-11.776 1.024-25.344 13.056-29.952l108.288-43.008L938.24 194.56l-130.304 39.168c-12.288 3.584-25.088-3.328-28.672-15.36-3.584-12.288 3.328-25.088 15.36-28.672l151.296-45.568c11.776-3.584 24.064 2.816 28.416 14.336l34.048 93.44c4.352 11.776-1.536 24.832-13.312 29.44l-129.28 51.2C862.976 333.568 859.904 334.08 857.088 334.08zM457.728 114.176c-9.984 0-19.456-6.656-22.272-16.896-1.024-3.84-9.984-37.632 8.96-65.536 8.448-12.288 25.6-27.392 59.392-30.208 32-2.56 50.688 9.472 60.928 20.224 25.6 26.624 21.504 67.072 20.992 71.68-1.536 12.544-13.056 21.76-25.6 20.224-12.544-1.536-21.76-13.056-20.224-25.6 0.512-5.888 0.512-25.088-8.448-34.304-1.792-1.792-7.168-7.424-23.808-6.144-12.544 1.024-20.992 4.352-25.088 10.24-5.888 8.192-3.84 22.272-2.816 26.624 3.584 12.288-3.584 25.088-15.872 28.416C462.08 113.92 459.776 114.176 457.728 114.176zM836.864 373.76 192.512 373.76c-12.8 0-23.04-10.24-23.04-23.04s10.24-23.04 23.04-23.04l644.352 0c12.8 0 23.04 10.24 23.04 23.04S849.408 373.76 836.864 373.76zM509.184 678.4c-152.832 0-282.88-36.864-288.512-38.4-1.024-0.256-2.048-0.768-3.072-1.024-11.776-5.376-70.144-33.792-70.144-77.568l0-171.776c0-96 37.12-178.176 107.52-237.824 65.536-55.552 155.648-86.016 253.952-86.016 98.304 0 188.416 30.464 253.952 86.016 70.4 59.648 107.52 141.824 107.52 237.824l0 171.776c0 43.776-58.368 72.192-70.144 77.568-1.024 0.512-2.048 0.768-3.072 1.024C792.064 641.536 662.016 678.4 509.184 678.4zM235.008 595.968c15.36 4.096 136.704 36.352 274.176 36.352 137.472 0 258.816-32 274.176-36.352 20.992-9.984 41.216-26.88 41.216-34.56l0-171.776c0-163.584-129.792-277.76-315.392-277.76-185.6 0-315.392 114.176-315.392 277.76l0 171.776C193.792 569.088 214.016 585.984 235.008 595.968zM946.944 1024 77.568 1024c-17.408 0-42.496-6.912-55.808-26.368-8.704-12.8-10.24-28.416-4.352-43.776 0.256-0.768 0.768-1.536 1.024-2.304l95.488-183.296c4.864-14.848 18.944-52.736 59.904-52.736l676.864 0c36.352 0 50.176 30.72 59.392 51.456 15.872 29.184 89.088 163.84 97.28 187.392 5.376 15.104 3.328 30.464-5.888 43.264C990.208 1013.76 968.96 1024 946.944 1024zM60.16 972.032c1.792 2.304 8.96 5.888 17.408 5.888l869.632 0c8.704 0 16.128-4.864 16.896-6.912 0 0 0-0.256-0.256-0.768-5.632-15.616-61.184-119.808-94.72-181.504-0.256-0.512-0.512-1.28-0.768-1.792-9.728-22.272-12.8-24.576-17.408-24.576L173.824 762.368c-3.84 0-9.216 0-16.64 22.528-0.512 1.28-0.768 2.304-1.536 3.584l-95.488 183.552C60.16 971.776 60.16 971.776 60.16 972.032zM513.28 955.648c-47.36 0-86.016-38.656-86.016-86.016s38.656-86.016 86.016-86.016 86.016 38.656 86.016 86.016S560.896 955.648 513.28 955.648zM513.28 824.832c-24.832 0-45.056 20.224-45.056 44.8 0 24.832 20.224 44.8 45.056 44.8 24.832 0 44.8-20.224 44.8-44.8C558.336 845.056 538.112 824.832 513.28 824.832z"/>
    </symbol>
    <symbol id="ertong" viewBox="0 0 1024 1024">
      <path fill="#333333" d="M512 738.255047c-51.314713 0-97.783047-23.580045-131.762953-61.706387-12.876262 14.44806-23.934109 30.976502-32.786731 49.142234 43.2265 45.950542 100.93483 74.269517 164.549683 74.269517 63.61383 0 121.32216-28.318976 164.549683-74.269517-8.852622-18.165732-19.911492-34.69622-32.786731-49.142234C609.783047 714.675002 563.314713 738.255047 512 738.255047zM429.725158 470.862068c0-45.439912-36.83493-82.274842-82.274842-82.274842s-82.274842 36.83493-82.274842 82.274842 36.83493 82.274842 82.274842 82.274842S429.725158 516.301979 429.725158 470.862068zM964.27985 526.323217c0.148379-4.756327 0.231267-9.531074 0.231267-14.323217 0-249.91798-202.593138-452.511117-452.511117-452.511117-249.909793 0-452.511117 202.593138-452.511117 452.511117 0 4.793166 0.083911 9.56689 0.231267 14.323217C33.985022 555.361577 18.35095 593.558527 18.35095 635.411751c0 83.742263 62.550615 152.868643 143.478785 163.211199 82.987063 101.266381 209.03178 165.887145 350.169241 165.887145 141.142577 0 267.187295-64.621786 350.173334-165.887145 80.927147-10.344602 143.475715-79.470983 143.475715-163.211199C1005.64905 593.558527 990.014978 555.361577 964.27985 526.323217zM841.099367 717.686592c-6.777357 0-13.358239-0.836041-19.658735-2.381234-66.195631 100.54802-180.055842 166.930917-309.440631 166.930917s-243.245-66.382896-309.440631-166.930917c-6.30152 1.545192-12.881378 2.381234-19.658735 2.381234-45.439912 0-82.274842-36.83493-82.274842-82.274842 0-31.839149 18.096147-59.432601 44.551682-73.111135-2.234901-16.451694-3.414773-33.238009-3.414773-50.301639 0-202.116277 161.957649-366.378411 363.17137-370.146225-16.969487 47.882544-62.650899 82.185814-116.347868 82.185814-14.504342 0-28.211529-2.961448-41.136909-7.553023l0 85.681428c13.295817 2.698458 27.042913 4.146437 41.136909 4.146437 96.699366 0 177.767729-66.730821 199.76472-156.649759 167.840636 35.1915 293.88433 184.03548 293.88433 362.336352 0 17.064654-1.179872 33.850969-3.414773 50.301639 26.457582 13.678534 44.551682 41.271986 44.551682 73.111135C923.374208 680.852686 886.539278 717.686592 841.099367 717.686592zM676.54866 388.588249c-45.440935 0-82.274842 36.83493-82.274842 82.274842s36.83493 82.274842 82.274842 82.274842 82.274842-36.83493 82.274842-82.274842S721.989595 388.588249 676.54866 388.588249z"/>
    </symbol>
    <symbol id="jjry" viewBox="0 0 1024 1024">
      <path fill="#333333" d="M656.366504 745.293347c-5.135974 20.386306-31.17093 64.952314-72.607668 124.988666 11.359722 2.63706 22.199605 5.612834 33.219589 7.615445 20.076244 3.651157 40.301891 6.492878 60.373019 10.169617 6.574742 1.205455 9.925047-1.192152 13.433964-6.412037 40.395012-60.046584 72.950476-124.218116 100.262518-191.074803 10.68741-26.16287 19.823488-52.957119 29.664623-79.46382 0.9967-2.692319 1.985214-5.386684 3.176342-8.625448 21.643949 7.462972 42.786479 14.754029 64.936965 22.39301-3.971451 11.618619-7.559163 22.602787-11.468193 33.469276-33.217543 92.294033-74.603115 180.555216-129.695874 262.020622-4.575202 6.768147-9.754155 13.130042-14.273075 19.931958-10.372232 15.613606-24.885783 20.443611-43.083238 18.711154-70.13843-6.665817-138.095171-22.630417-203.946972-47.421033C366.551862 866.494757 263.411807 797.4748 181.660898 697.994088c-9.795087-11.919471-12.605086-25.124214-6.214539-39.120996 6.164397-13.503549 18.030655-19.634176 32.513508-19.824511 62.256926-0.825808 122.270764-13.300934 180.297342-35.240619 52.505841-19.850094 100.349499-47.342238 137.174196-90.851171 10.670014-12.609179 19.378349-26.881231 29.449729-41.040718 18.990516 10.69969 38.487569 21.684882 60.015885 33.816177-11.133571 16.112979-21.039175 32.221866-32.68747 46.952358-28.481681 36.014238-64.412009 63.385633-104.296391 85.558631-60.10389 33.412994-124.994806 52.664454-192.579063 63.60462-1.331321 0.215918-2.65241 0.496304-5.9055 1.111311 9.66308 8.861832 17.807574 17.125029 26.767644 24.3772 16.784268 13.58439 33.846876 26.852578 51.275827 39.59274 3.400446 2.487657 9.344832 3.544733 13.515828 2.602268 34.647101-7.825222 66.463738-21.686928 93.140307-46.388517-2.298346 12.126178-24.226774 42.948161-54.974056 77.261665 19.313881 9.625218 38.838563 18.053168 57.031924 28.746718 23.553439 13.84431 46.070268 10.076496 69.196988 0.080841 39.068807-16.883529 72.539106-42.126446 104.588033-69.53161C645.16744 755.25728 650.244063 750.679008 656.366504 745.293347zM909.529387 567.152111c-109.651352-48.781006-218.512712-97.211019-328.184531-146.001235 9.072633-21.050432 23.290449-37.069267 42.509163-48.406476 32.099069-18.935258 65.702398-21.055548 99.830683-6.203282 43.828204 19.075451 87.598081 38.317701 130.971937 58.401108 50.973952 23.602557 74.944899 76.694753 59.435671 129.401162C912.884808 558.446845 911.231145 562.418296 909.529387 567.152111zM860.838432 376.022049c-34.528398-15.376199-68.619844-30.5549-102.691847-45.771463-0.720408-0.322341-1.237177-1.104147-2.220574-2.01489 1.274016-2.577708 2.468215-5.166673 3.807722-7.677866 42.679032-80.046081 85.36932-160.084998 128.067794-240.122893 7.143701-13.394055 15.47239-17.447371 30.849612-15.20326 14.130835 2.060939 26.107611 8.118911 35.302017 19.165502 6.055926 7.2798 7.55814 15.208377 4.190439 24.474414-31.859615 87.676875-63.522756 175.425382-95.262644 263.145236C862.493118 373.095393 861.842295 374.077767 860.838432 376.022049zM340.020602 460.518488c-1.156336 47.65844-41.127699 86.435605-87.667665 85.045955-47.558156-1.419326-85.758176-41.085744-84.785012-88.041172 0.963954-46.604434 41.120536-85.515652 87.349417-84.643796C302.194088 373.772822 341.151355 413.891542 340.020602 460.518488zM116.018875 200.6376c28.565593 0.094144 51.687196 23.460318 51.42523 51.965535-0.258896 28.071336-23.364127 51.147914-51.420113 51.354622-28.161387 0.206708-51.93279-23.49818-51.930743-51.78441C64.095295 223.695758 87.425653 200.541409 116.018875 200.6376zM236.815055 269.441639c-0.005117-19.2269 15.311731-34.456766 34.525328-34.328853 19.014052 0.128937 34.626635 15.943111 34.30941 34.753525-0.311085 18.481933-15.838733 33.916461-34.288944 34.084283C252.499269 304.123532 236.822219 288.461831 236.815055 269.441639z"/>
    </symbol>
    <symbol id="keting" viewBox="0 0 1024 1024">
      <path fill="#333333" d="M864.0512 554.0864c-6.3488 0-12.3904 2.4576-16.896 6.8608-4.4032 4.4032-6.8608 10.24-6.7584 16.384l0.8192 40.7552v199.68c0 25.088-21.1968 45.4656-47.3088 45.4656H229.9904c-26.112 0-47.3088-20.3776-47.3088-45.4656v-199.68l0.8192-40.7552c0.1024-6.144-2.2528-11.9808-6.7584-16.384-4.4032-4.4032-10.5472-6.8608-16.896-6.8608-62.1568 0-112.64-48.64-112.64-108.3392 0-59.8016 50.4832-108.3392 112.64-108.3392 61.8496 0 112.128 48.128 112.64 107.52l-1.6384 19.5584c0 0.6144-0.1024 1.2288-0.1024 1.7408v200.6016c0 12.5952 10.5472 22.7328 23.6544 22.7328h434.8928c13.1072 0 23.6544-10.1376 23.6544-22.7328V466.2272c0-0.6144 0-1.2288-0.1024-1.7408l-1.536-19.5584c0.512-59.392 50.7904-107.52 112.64-107.52 62.1568 0 112.64 48.64 112.64 108.3392s-50.3808 108.3392-112.5376 108.3392zM197.632 223.3344c0-43.8272 22.6304-84.0704 68.4032-84.0704H763.904c45.7728 0 67.3792 40.3456 67.3792 84.0704l-0.3072 72.9088c-67.3792 9.8304-120.832 61.3376-130.56 126.3616v214.4256H323.584V422.5024c-9.5232-63.488-60.7232-114.176-125.952-125.5424v-73.6256z m826.368 222.4128c0-76.6976-58.5728-140.3904-134.9632-151.9616l-0.7168-75.1616C888.4224 144.896 847.872 84.992 771.072 84.992H258.9696c-76.9024 0-119.3984 59.904-119.3984 133.632v74.5472C61.0304 302.7968 0 367.5136 0 445.7472c0 77.0048 59.0848 140.9024 135.7824 152.1664l-0.4096 19.456v200.3968c0 44.4416 33.28 81.5104 77.2096 89.3952v19.968c0 12.5952 10.5472 22.7328 23.6544 22.7328s23.6544-10.1376 23.6544-22.7328v-18.3296h504.2176v18.3296c0 12.5952 10.5472 22.7328 23.6544 22.7328s23.6544-10.1376 23.6544-22.7328v-19.968c43.8272-7.8848 77.2096-44.9536 77.2096-89.3952V617.7792v-0.512l-0.4096-19.456c76.6976-11.1616 135.7824-75.0592 135.7824-152.064z"/>
    </symbol>
    <symbol id="shufang" viewBox="0 0 1024 1024">
      <path fill="#333333" d="M26.04 830.618c-13.07 0-23.7-10.636-23.7-23.706V150.119c0-9.914 6.25-18.86 15.554-22.263 17.903-6.55 113.952-39.221 246.816-39.221 85.04 0 168.751 13.165 248.808 39.128a23.647 23.647 0 0 1 16.39 22.558V801.87c0 13.075-10.626 23.712-23.688 23.713-1.754 0-3.514-0.196-5.23-0.583-29.358-6.623-134.342-28.231-252.548-28.231-83.833 0-155.895 10.894-214.184 32.38a23.72 23.72 0 0 1-8.219 1.469z m12.115-671.903V789.9c59.11-19.214 129.748-28.947 210.285-28.947 106.759 0 203.04 17.085 245.652 25.918V159.17c-73.942-23.043-151.062-34.718-229.383-34.718-113.2 0-197.684 24.583-226.554 34.264z"/><path fill="#333333" d="M519.085 830.618c-13.068 0-23.7-10.636-23.7-23.706V150.119c0-9.915 6.252-18.863 15.557-22.263 17.902-6.548 113.95-39.221 246.813-39.221 85.041 0 168.75 13.165 248.808 39.128a23.647 23.647 0 0 1 16.392 22.558V801.87c0 13.075-10.627 23.712-23.688 23.713-1.754 0-3.514-0.196-5.23-0.584-29.36-6.622-134.344-28.23-252.55-28.23-83.834 0-155.896 10.894-214.184 32.38a23.684 23.684 0 0 1-8.218 1.469z m12.116-671.903V789.9c59.113-19.215 129.748-28.947 210.286-28.947 106.757 0 203.038 17.085 245.652 25.918V159.17c-73.944-23.043-151.062-34.719-229.383-34.719-113.201 0-197.685 24.584-226.555 34.265zM115.553 300.157l-0.01-0.034c-2.607-9.897 3.591-19.956 13.603-22.085 18.149-3.858 48.492-9.46 85.294-12.96 71.81-6.828 134.898-2.804 187.886 11.956 9.946 2.77 15.548 13.291 12.214 23.062-3.052 8.948-12.547 14.028-21.656 11.497-97.597-27.13-213.787-7.429-256.3 1.525-9.347 1.968-18.598-3.723-21.031-12.96zM115.553 446.277l-0.01-0.034c-2.607-9.897 3.591-19.956 13.603-22.085 18.149-3.859 48.492-9.46 85.294-12.96 71.81-6.828 134.898-2.804 187.886 11.955 9.946 2.77 15.548 13.292 12.214 23.063-3.052 8.948-12.547 14.028-21.656 11.497-97.597-27.13-213.787-7.429-256.3 1.525-9.347 1.97-18.598-3.723-21.031-12.96zM115.553 581.346l-0.01-0.033c-2.607-9.898 3.591-19.957 13.603-22.085 18.149-3.86 48.492-9.46 85.294-12.96 71.81-6.83 134.898-2.804 187.886 11.955 9.946 2.77 15.548 13.291 12.214 23.062-3.052 8.948-12.547 14.028-21.656 11.497-97.597-27.129-213.787-7.428-256.3 1.526-9.347 1.968-18.598-3.724-21.031-12.962z"/><path fill="#333333" d="M609.497 300.157l-0.01-0.034c-2.607-9.897 3.591-19.956 13.603-22.085 18.148-3.858 48.492-9.46 85.295-12.96 71.81-6.828 134.898-2.804 187.886 11.956 9.945 2.77 15.548 13.291 12.214 23.062-3.052 8.948-12.548 14.028-21.656 11.497-97.597-27.13-213.787-7.429-256.3 1.525-9.348 1.968-18.6-3.723-21.032-12.96zM609.497 446.277l-0.01-0.034c-2.607-9.897 3.591-19.956 13.603-22.085 18.148-3.859 48.492-9.46 85.295-12.96 71.81-6.828 134.898-2.804 187.886 11.955 9.945 2.77 15.548 13.292 12.214 23.063-3.052 8.948-12.548 14.028-21.656 11.497-97.597-27.13-213.787-7.429-256.3 1.525-9.348 1.97-18.6-3.723-21.032-12.96zM609.497 581.346l-0.01-0.033c-2.607-9.898 3.591-19.957 13.603-22.085 18.148-3.86 48.492-9.46 85.295-12.96 71.81-6.83 134.898-2.804 187.886 11.955 9.945 2.77 15.548 13.291 12.214 23.062-3.052 8.948-12.548 14.028-21.656 11.497-97.597-27.129-213.787-7.428-256.3 1.526-9.348 1.968-18.6-3.724-21.032-12.962z"/>
    </symbol>
    <symbol id="weishengjian" viewBox="0 0 1024 1024">
      <path d="M842.24 734.72l-23.04-66.56-43.52 15.36 23.04 66.56 43.52-15.36z m-66.56 94.72l-23.04-66.56-43.52 15.36 23.04 66.56 43.52-15.36z m20.48-227.84L765.44 512l-43.52 15.36 30.72 89.6 43.52-15.36z m112.64 184.32l43.52-15.36-23.04-66.56-43.52 15.36 23.04 66.56z m-253.44-161.28l30.72 89.6 43.52-15.36-30.72-89.6-43.52 15.36z m194.56-299.52l-53.76-76.8c-66.56-66.56-184.32-84.48-273.92-56.32C473.6 110.08 407.04 51.2 304.64 51.2 166.4 51.2 48.64 148.48 25.6 281.6v716.8h51.2V384v-102.4c0-20.48 104.96-176.64 207.36-184.32 43.52-2.56 38.4-5.12 51.2 0 69.12 20.48 128 125.44 125.44 125.44-102.4 61.44-130.56 222.72-66.56 337.92 5.12 7.68 7.68 12.8 12.8 20.48l81.92-48.64L768 373.76l81.92-48.64z m-422.4 194.56c-61.44-61.44-7.68-230.4 94.72-281.6 92.16-46.08 227.84 2.56 258.56 69.12l-353.28 212.48z m435.2 133.12l43.52-15.36-30.72-89.6-43.52 15.36 30.72 89.6z m2.56 294.4l17.92 51.2h48.64l-23.04-64-43.52 12.8z m-112.64-35.84l23.04 66.56 43.52-15.36-23.04-66.56-43.52 15.36z m-166.4-340.48l-43.52 15.36 30.72 89.6 43.52-15.36-30.72-89.6z m389.12 266.24l-43.52 15.36 23.04 66.56 43.52-15.36-23.04-66.56z m-112.64-35.84l-43.52 12.8 23.04 66.56 43.52-15.36-23.04-64zM716.8 998.4h15.36l-2.56-5.12-12.8 5.12z m-76.8-271.36l-46.08 15.36 23.04 66.56 43.52-15.36-20.48-66.56z m0 148.48l23.04 66.56 43.52-15.36-23.04-66.56-43.52 15.36z" p-id="1115"/>
    </symbol>
    <symbol id="woshi" viewBox="0 0 1038 1024">
      <path fill="#333333" d="M993.792 458.24V262.144c-45.568-48.64-110.08-78.848-181.76-78.848-5.12 0-10.752 0-15.872 0.512-68.608-76.8-167.936-124.928-279.04-124.928-111.104 0-210.432 48.128-279.04 124.928-5.12-0.512-10.752-0.512-15.872-0.512-71.68 0-136.192 30.208-181.76 78.848V458.24c-19.968 6.656-34.304 25.088-34.304 47.104V849.92c0 27.648 22.528 49.664 49.664 49.664h87.04c27.648 0 49.664-22.528 49.664-49.664v-30.72c0-13.824 11.264-25.088 25.088-25.088H816.128c13.824 0 25.088 11.264 25.088 25.088v30.208c0 27.648 22.528 49.664 49.664 49.664h87.04c27.648 0 49.664-22.528 49.664-49.664v-344.576c0.512-21.504-13.824-39.936-33.792-46.592z m-902.656-175.104c29.696-26.624 68.096-44.032 109.568-48.64 7.168-1.024 14.848-1.024 22.016-1.024 12.8 0 25.088 1.024 36.864 3.584 11.264-14.848 24.064-29.184 37.888-41.984 57.856-53.248 135.168-86.016 219.648-86.016 84.992 0 162.304 32.768 219.648 86.016 13.824 12.8 26.624 26.624 37.888 41.984 11.776-2.048 24.064-3.584 36.864-3.584 7.68 0 14.848 0.512 22.016 1.024 41.984 4.608 79.872 22.016 109.568 48.64V455.68h-46.08c-30.208-71.68-100.864-122.368-183.808-122.368s-153.6 50.688-183.808 122.368h-30.72c-30.208-71.68-100.864-122.368-183.808-122.368s-153.6 50.688-183.808 122.368h-40.448v-172.544zM842.24 455.68h-256.512c26.112-43.52 73.728-72.704 128-72.704 54.784 0 102.4 29.184 128.512 72.704z m-398.336 0h-256.512c26.112-43.52 73.728-72.704 128-72.704 54.784 0 102.4 29.184 128.512 72.704z m534.528 369.152c0 13.824-11.264 25.088-25.088 25.088h-37.376c-13.824 0-25.088-11.264-25.088-25.088v-30.208c0-6.656-1.536-13.312-3.584-18.944-7.68-17.92-25.088-30.72-46.08-30.72h-647.168c-20.48 0-38.4 12.8-46.08 30.72-2.56 5.632-3.584 12.288-3.584 18.944v31.232c0 13.824-11.264 24.576-25.088 24.576h-37.376c-13.824 0-25.088-11.264-25.088-25.088v-294.4c0-13.824 11.264-25.088 25.088-25.088H953.344c13.824 0 25.088 11.264 25.088 25.088v293.888z"/>
    </symbol>
    <symbol id="xiyijian" viewBox="0 0 1024 1024">
      <path fill="#333333" d="M996.827127 189.545984 837.337693 61.951981c-11.320836-9.058306-25.420973-13.969153-39.872103-13.969153L223.301785 47.982828c-14.479783 0-28.54615 4.910846-39.872103 13.969153L23.940249 189.545984c-20.86112 16.71366-29.090549 44.657082-20.635993 70.015633l63.794955 191.388958c6.284123 18.851347 21.021779 33.715893 39.84345 40.160675 6.697539 2.292206 13.715373 3.440355 20.669762 3.440355 11.097756 0 22.103414-2.901073 31.895431-8.546653l0 391.326617c0 35.214013 28.580942 63.794955 63.794955 63.794955l574.163805 0c35.215036 0 63.794955-28.580942 63.794955-63.794955L861.261569 486.004953c9.794064 5.64558 20.798698 8.546653 31.900547 8.546653 6.984065 0 13.969153-1.147126 20.671809-3.440355 18.815531-6.444782 33.525558-21.309328 39.808658-40.160675l63.794955-191.388958C1025.918699 234.203066 1017.688247 206.259644 996.827127 189.545984L996.827127 189.545984zM630.129444 111.777783c-17.638729 37.035498-64.36903 63.794955-119.743198 63.794955-55.375192 0-102.139262-26.759457-119.744221-63.794955L630.129444 111.777783 630.129444 111.777783zM893.160069 430.756651l-95.695502-63.794955 0 510.36885L223.301785 877.330546 223.301785 366.961696l-95.690386 63.794955L63.812351 239.372809 223.301785 111.777783l133.240607 0c17.765619 54.926984 79.617315 95.694479 153.843854 95.694479 74.191746 0 136.073118-40.768519 153.809061-95.694479l133.269259 0 159.489434 127.595027L893.160069 430.756651 893.160069 430.756651zM893.160069 430.756651"/>
    </symbol>
    <symbol id="yangtai" viewBox="0 0 1066 1024">
      <path fill="#333333" d="M914.389333 1023.530667H152.064c-56.810667 0-103.232-47.146667-103.232-104.853334V569.706667h968.789333v348.970666c0 57.728-46.144 104.853333-103.253333 104.853334z m-817.792-405.333334v300.48c0 31.146667 24.789333 56.362667 55.466667 56.362667h762.325333c30.677333 0 55.466667-25.194667 55.466667-56.362667V618.197333H96.618667zM807.957333 1023.808H258.496V278.186667c0-152.832 122.432-276.906667 272.597333-276.906667h4.266667c150.442667 0 272.597333 124.373333 272.597333 276.906667V1023.786667z m-501.717333-48.490667h454.250667v-697.173333c0-125.973333-100.842667-228.672-225.130667-228.672h-4.266667c-124.032 0-225.130667 102.421333-225.130666 228.693333v697.152h0.277333zM510.826667 1002.944h45.333333V591.104h-45.333333zM70.442667 598.144c-38.4 0-69.888-31.701333-69.888-70.976 0-39.296 31.210667-70.997333 69.888-70.997333 38.677333 0 69.888 31.701333 69.888 70.997333 0 39.274667-31.466667 70.976-69.888 70.976z m0-98.901333c-15.189333 0-27.477333 12.48-27.477334 27.925333s12.288 27.904 27.477334 27.904c15.210667 0 27.477333-12.458667 27.477333-27.904 0-15.189333-12.266667-27.925333-27.477333-27.925333zM995.733333 598.144c-38.4 0-69.866667-31.701333-69.866666-70.976 0-39.296 31.189333-70.997333 69.866666-70.997333 38.4 0 69.888 31.701333 69.888 70.997333 0 39.274667-31.466667 70.976-69.888 70.976z m0-98.901333c-15.189333 0-27.456 12.48-27.456 27.925333s12.266667 27.904 27.456 27.904c15.210667 0 27.477333-12.458667 27.477334-27.904 0-15.189333-12.522667-27.925333-27.477334-27.925333zM281.429333 293.056h501.461334v-43.349333H281.429333zM513.493333 271.381333h40V24.810667H513.493333zM377.962667 87.466667l171.818666 171.52-29.738666 30.72-171.797334-171.498667 29.717334-30.72M695.232 89.664l28.8 31.594667-176.64 166.314666-28.842667-31.594666 176.682667-166.314667"/>
    </symbol></svg>