<?xml version="1.0" standalone="no"?><!DOCTYPE svg PUBLIC "-//W3C//DTD SVG 1.1//EN" "http://www.w3.org/Graphics/SVG/1.1/DTD/svg11.dtd"><svg class="icon" width="200px" height="200.00px" viewBox="0 0 1024 1024" version="1.1" xmlns="http://www.w3.org/2000/svg"><path fill="#333333" d="M857.088 334.08c-9.216 0-17.92-5.632-21.504-14.592-4.608-11.776 1.024-25.344 13.056-29.952l108.288-43.008L938.24 194.56l-130.304 39.168c-12.288 3.584-25.088-3.328-28.672-15.36-3.584-12.288 3.328-25.088 15.36-28.672l151.296-45.568c11.776-3.584 24.064 2.816 28.416 14.336l34.048 93.44c4.352 11.776-1.536 24.832-13.312 29.44l-129.28 51.2C862.976 333.568 859.904 334.08 857.088 334.08zM457.728 114.176c-9.984 0-19.456-6.656-22.272-16.896-1.024-3.84-9.984-37.632 8.96-65.536 8.448-12.288 25.6-27.392 59.392-30.208 32-2.56 50.688 9.472 60.928 20.224 25.6 26.624 21.504 67.072 20.992 71.68-1.536 12.544-13.056 21.76-25.6 20.224-12.544-1.536-21.76-13.056-20.224-25.6 0.512-5.888 0.512-25.088-8.448-34.304-1.792-1.792-7.168-7.424-23.808-6.144-12.544 1.024-20.992 4.352-25.088 10.24-5.888 8.192-3.84 22.272-2.816 26.624 3.584 12.288-3.584 25.088-15.872 28.416C462.08 113.92 459.776 114.176 457.728 114.176zM836.864 373.76 192.512 373.76c-12.8 0-23.04-10.24-23.04-23.04s10.24-23.04 23.04-23.04l644.352 0c12.8 0 23.04 10.24 23.04 23.04S849.408 373.76 836.864 373.76zM509.184 678.4c-152.832 0-282.88-36.864-288.512-38.4-1.024-0.256-2.048-0.768-3.072-1.024-11.776-5.376-70.144-33.792-70.144-77.568l0-171.776c0-96 37.12-178.176 107.52-237.824 65.536-55.552 155.648-86.016 253.952-86.016 98.304 0 188.416 30.464 253.952 86.016 70.4 59.648 107.52 141.824 107.52 237.824l0 171.776c0 43.776-58.368 72.192-70.144 77.568-1.024 0.512-2.048 0.768-3.072 1.024C792.064 641.536 662.016 678.4 509.184 678.4zM235.008 595.968c15.36 4.096 136.704 36.352 274.176 36.352 137.472 0 258.816-32 274.176-36.352 20.992-9.984 41.216-26.88 41.216-34.56l0-171.776c0-163.584-129.792-277.76-315.392-277.76-185.6 0-315.392 114.176-315.392 277.76l0 171.776C193.792 569.088 214.016 585.984 235.008 595.968zM946.944 1024 77.568 1024c-17.408 0-42.496-6.912-55.808-26.368-8.704-12.8-10.24-28.416-4.352-43.776 0.256-0.768 0.768-1.536 1.024-2.304l95.488-183.296c4.864-14.848 18.944-52.736 59.904-52.736l676.864 0c36.352 0 50.176 30.72 59.392 51.456 15.872 29.184 89.088 163.84 97.28 187.392 5.376 15.104 3.328 30.464-5.888 43.264C990.208 1013.76 968.96 1024 946.944 1024zM60.16 972.032c1.792 2.304 8.96 5.888 17.408 5.888l869.632 0c8.704 0 16.128-4.864 16.896-6.912 0 0 0-0.256-0.256-0.768-5.632-15.616-61.184-119.808-94.72-181.504-0.256-0.512-0.512-1.28-0.768-1.792-9.728-22.272-12.8-24.576-17.408-24.576L173.824 762.368c-3.84 0-9.216 0-16.64 22.528-0.512 1.28-0.768 2.304-1.536 3.584l-95.488 183.552C60.16 971.776 60.16 971.776 60.16 972.032zM513.28 955.648c-47.36 0-86.016-38.656-86.016-86.016s38.656-86.016 86.016-86.016 86.016 38.656 86.016 86.016S560.896 955.648 513.28 955.648zM513.28 824.832c-24.832 0-45.056 20.224-45.056 44.8 0 24.832 20.224 44.8 45.056 44.8 24.832 0 44.8-20.224 44.8-44.8C558.336 845.056 538.112 824.832 513.28 824.832z" /></svg>