<?xml version="1.0" standalone="no"?><!DOCTYPE svg PUBLIC "-//W3C//DTD SVG 1.1//EN" "http://www.w3.org/Graphics/SVG/1.1/DTD/svg11.dtd"><svg class="icon" width="200px" height="200.00px" viewBox="0 0 1024 1024" version="1.1" xmlns="http://www.w3.org/2000/svg"><path fill="#333333" d="M864.0512 554.0864c-6.3488 0-12.3904 2.4576-16.896 6.8608-4.4032 4.4032-6.8608 10.24-6.7584 16.384l0.8192 40.7552v199.68c0 25.088-21.1968 45.4656-47.3088 45.4656H229.9904c-26.112 0-47.3088-20.3776-47.3088-45.4656v-199.68l0.8192-40.7552c0.1024-6.144-2.2528-11.9808-6.7584-16.384-4.4032-4.4032-10.5472-6.8608-16.896-6.8608-62.1568 0-112.64-48.64-112.64-108.3392 0-59.8016 50.4832-108.3392 112.64-108.3392 61.8496 0 112.128 48.128 112.64 107.52l-1.6384 19.5584c0 0.6144-0.1024 1.2288-0.1024 1.7408v200.6016c0 12.5952 10.5472 22.7328 23.6544 22.7328h434.8928c13.1072 0 23.6544-10.1376 23.6544-22.7328V466.2272c0-0.6144 0-1.2288-0.1024-1.7408l-1.536-19.5584c0.512-59.392 50.7904-107.52 112.64-107.52 62.1568 0 112.64 48.64 112.64 108.3392s-50.3808 108.3392-112.5376 108.3392zM197.632 223.3344c0-43.8272 22.6304-84.0704 68.4032-84.0704H763.904c45.7728 0 67.3792 40.3456 67.3792 84.0704l-0.3072 72.9088c-67.3792 9.8304-120.832 61.3376-130.56 126.3616v214.4256H323.584V422.5024c-9.5232-63.488-60.7232-114.176-125.952-125.5424v-73.6256z m826.368 222.4128c0-76.6976-58.5728-140.3904-134.9632-151.9616l-0.7168-75.1616C888.4224 144.896 847.872 84.992 771.072 84.992H258.9696c-76.9024 0-119.3984 59.904-119.3984 133.632v74.5472C61.0304 302.7968 0 367.5136 0 445.7472c0 77.0048 59.0848 140.9024 135.7824 152.1664l-0.4096 19.456v200.3968c0 44.4416 33.28 81.5104 77.2096 89.3952v19.968c0 12.5952 10.5472 22.7328 23.6544 22.7328s23.6544-10.1376 23.6544-22.7328v-18.3296h504.2176v18.3296c0 12.5952 10.5472 22.7328 23.6544 22.7328s23.6544-10.1376 23.6544-22.7328v-19.968c43.8272-7.8848 77.2096-44.9536 77.2096-89.3952V617.7792v-0.512l-0.4096-19.456c76.6976-11.1616 135.7824-75.0592 135.7824-152.064z" /></svg>