<?xml version="1.0" standalone="no"?><!DOCTYPE svg PUBLIC "-//W3C//DTD SVG 1.1//EN" "http://www.w3.org/Graphics/SVG/1.1/DTD/svg11.dtd"><svg t="1494665763465" class="icon" style="" viewBox="0 0 1024 1024" version="1.1" xmlns="http://www.w3.org/2000/svg" p-id="1114" xmlns:xlink="http://www.w3.org/1999/xlink" width="200" height="200"><defs><style type="text/css"></style></defs><path d="M842.24 734.72l-23.04-66.56-43.52 15.36 23.04 66.56 43.52-15.36z m-66.56 94.72l-23.04-66.56-43.52 15.36 23.04 66.56 43.52-15.36z m20.48-227.84L765.44 512l-43.52 15.36 30.72 89.6 43.52-15.36z m112.64 184.32l43.52-15.36-23.04-66.56-43.52 15.36 23.04 66.56z m-253.44-161.28l30.72 89.6 43.52-15.36-30.72-89.6-43.52 15.36z m194.56-299.52l-53.76-76.8c-66.56-66.56-184.32-84.48-273.92-56.32C473.6 110.08 407.04 51.2 304.64 51.2 166.4 51.2 48.64 148.48 25.6 281.6v716.8h51.2V384v-102.4c0-20.48 104.96-176.64 207.36-184.32 43.52-2.56 38.4-5.12 51.2 0 69.12 20.48 128 125.44 125.44 125.44-102.4 61.44-130.56 222.72-66.56 337.92 5.12 7.68 7.68 12.8 12.8 20.48l81.92-48.64L768 373.76l81.92-48.64z m-422.4 194.56c-61.44-61.44-7.68-230.4 94.72-281.6 92.16-46.08 227.84 2.56 258.56 69.12l-353.28 212.48z m435.2 133.12l43.52-15.36-30.72-89.6-43.52 15.36 30.72 89.6z m2.56 294.4l17.92 51.2h48.64l-23.04-64-43.52 12.8z m-112.64-35.84l23.04 66.56 43.52-15.36-23.04-66.56-43.52 15.36z m-166.4-340.48l-43.52 15.36 30.72 89.6 43.52-15.36-30.72-89.6z m389.12 266.24l-43.52 15.36 23.04 66.56 43.52-15.36-23.04-66.56z m-112.64-35.84l-43.52 12.8 23.04 66.56 43.52-15.36-23.04-64zM716.8 998.4h15.36l-2.56-5.12-12.8 5.12z m-76.8-271.36l-46.08 15.36 23.04 66.56 43.52-15.36-20.48-66.56z m0 148.48l23.04 66.56 43.52-15.36-23.04-66.56-43.52 15.36z" p-id="1115"></path></svg>