<?xml version="1.0" standalone="no"?><!DOCTYPE svg PUBLIC "-//W3C//DTD SVG 1.1//EN" "http://www.w3.org/Graphics/SVG/1.1/DTD/svg11.dtd"><svg class="icon" width="200px" height="197.30px" viewBox="0 0 1038 1024" version="1.1" xmlns="http://www.w3.org/2000/svg"><path fill="#333333" d="M993.792 458.24V262.144c-45.568-48.64-110.08-78.848-181.76-78.848-5.12 0-10.752 0-15.872 0.512-68.608-76.8-167.936-124.928-279.04-124.928-111.104 0-210.432 48.128-279.04 124.928-5.12-0.512-10.752-0.512-15.872-0.512-71.68 0-136.192 30.208-181.76 78.848V458.24c-19.968 6.656-34.304 25.088-34.304 47.104V849.92c0 27.648 22.528 49.664 49.664 49.664h87.04c27.648 0 49.664-22.528 49.664-49.664v-30.72c0-13.824 11.264-25.088 25.088-25.088H816.128c13.824 0 25.088 11.264 25.088 25.088v30.208c0 27.648 22.528 49.664 49.664 49.664h87.04c27.648 0 49.664-22.528 49.664-49.664v-344.576c0.512-21.504-13.824-39.936-33.792-46.592z m-902.656-175.104c29.696-26.624 68.096-44.032 109.568-48.64 7.168-1.024 14.848-1.024 22.016-1.024 12.8 0 25.088 1.024 36.864 3.584 11.264-14.848 24.064-29.184 37.888-41.984 57.856-53.248 135.168-86.016 219.648-86.016 84.992 0 162.304 32.768 219.648 86.016 13.824 12.8 26.624 26.624 37.888 41.984 11.776-2.048 24.064-3.584 36.864-3.584 7.68 0 14.848 0.512 22.016 1.024 41.984 4.608 79.872 22.016 109.568 48.64V455.68h-46.08c-30.208-71.68-100.864-122.368-183.808-122.368s-153.6 50.688-183.808 122.368h-30.72c-30.208-71.68-100.864-122.368-183.808-122.368s-153.6 50.688-183.808 122.368h-40.448v-172.544zM842.24 455.68h-256.512c26.112-43.52 73.728-72.704 128-72.704 54.784 0 102.4 29.184 128.512 72.704z m-398.336 0h-256.512c26.112-43.52 73.728-72.704 128-72.704 54.784 0 102.4 29.184 128.512 72.704z m534.528 369.152c0 13.824-11.264 25.088-25.088 25.088h-37.376c-13.824 0-25.088-11.264-25.088-25.088v-30.208c0-6.656-1.536-13.312-3.584-18.944-7.68-17.92-25.088-30.72-46.08-30.72h-647.168c-20.48 0-38.4 12.8-46.08 30.72-2.56 5.632-3.584 12.288-3.584 18.944v31.232c0 13.824-11.264 24.576-25.088 24.576h-37.376c-13.824 0-25.088-11.264-25.088-25.088v-294.4c0-13.824 11.264-25.088 25.088-25.088H953.344c13.824 0 25.088 11.264 25.088 25.088v293.888z" /></svg>