<?xml version="1.0" standalone="no"?><!DOCTYPE svg PUBLIC "-//W3C//DTD SVG 1.1//EN" "http://www.w3.org/Graphics/SVG/1.1/DTD/svg11.dtd"><svg class="icon" width="200px" height="200.00px" viewBox="0 0 1024 1024" version="1.1" xmlns="http://www.w3.org/2000/svg"><path fill="#333333" d="M996.827127 189.545984 837.337693 61.951981c-11.320836-9.058306-25.420973-13.969153-39.872103-13.969153L223.301785 47.982828c-14.479783 0-28.54615 4.910846-39.872103 13.969153L23.940249 189.545984c-20.86112 16.71366-29.090549 44.657082-20.635993 70.015633l63.794955 191.388958c6.284123 18.851347 21.021779 33.715893 39.84345 40.160675 6.697539 2.292206 13.715373 3.440355 20.669762 3.440355 11.097756 0 22.103414-2.901073 31.895431-8.546653l0 391.326617c0 35.214013 28.580942 63.794955 63.794955 63.794955l574.163805 0c35.215036 0 63.794955-28.580942 63.794955-63.794955L861.261569 486.004953c9.794064 5.64558 20.798698 8.546653 31.900547 8.546653 6.984065 0 13.969153-1.147126 20.671809-3.440355 18.815531-6.444782 33.525558-21.309328 39.808658-40.160675l63.794955-191.388958C1025.918699 234.203066 1017.688247 206.259644 996.827127 189.545984L996.827127 189.545984zM630.129444 111.777783c-17.638729 37.035498-64.36903 63.794955-119.743198 63.794955-55.375192 0-102.139262-26.759457-119.744221-63.794955L630.129444 111.777783 630.129444 111.777783zM893.160069 430.756651l-95.695502-63.794955 0 510.36885L223.301785 877.330546 223.301785 366.961696l-95.690386 63.794955L63.812351 239.372809 223.301785 111.777783l133.240607 0c17.765619 54.926984 79.617315 95.694479 153.843854 95.694479 74.191746 0 136.073118-40.768519 153.809061-95.694479l133.269259 0 159.489434 127.595027L893.160069 430.756651 893.160069 430.756651zM893.160069 430.756651" /></svg>