<?xml version="1.0" standalone="no"?><!DOCTYPE svg PUBLIC "-//W3C//DTD SVG 1.1//EN" "http://www.w3.org/Graphics/SVG/1.1/DTD/svg11.dtd"><svg class="icon" width="200px" height="192.12px" viewBox="0 0 1066 1024" version="1.1" xmlns="http://www.w3.org/2000/svg"><path fill="#333333" d="M914.389333 1023.530667H152.064c-56.810667 0-103.232-47.146667-103.232-104.853334V569.706667h968.789333v348.970666c0 57.728-46.144 104.853333-103.253333 104.853334z m-817.792-405.333334v300.48c0 31.146667 24.789333 56.362667 55.466667 56.362667h762.325333c30.677333 0 55.466667-25.194667 55.466667-56.362667V618.197333H96.618667zM807.957333 1023.808H258.496V278.186667c0-152.832 122.432-276.906667 272.597333-276.906667h4.266667c150.442667 0 272.597333 124.373333 272.597333 276.906667V1023.786667z m-501.717333-48.490667h454.250667v-697.173333c0-125.973333-100.842667-228.672-225.130667-228.672h-4.266667c-124.032 0-225.130667 102.421333-225.130666 228.693333v697.152h0.277333zM510.826667 1002.944h45.333333V591.104h-45.333333zM70.442667 598.144c-38.4 0-69.888-31.701333-69.888-70.976 0-39.296 31.210667-70.997333 69.888-70.997333 38.677333 0 69.888 31.701333 69.888 70.997333 0 39.274667-31.466667 70.976-69.888 70.976z m0-98.901333c-15.189333 0-27.477333 12.48-27.477334 27.925333s12.288 27.904 27.477334 27.904c15.210667 0 27.477333-12.458667 27.477333-27.904 0-15.189333-12.266667-27.925333-27.477333-27.925333zM995.733333 598.144c-38.4 0-69.866667-31.701333-69.866666-70.976 0-39.296 31.189333-70.997333 69.866666-70.997333 38.4 0 69.888 31.701333 69.888 70.997333 0 39.274667-31.466667 70.976-69.888 70.976z m0-98.901333c-15.189333 0-27.456 12.48-27.456 27.925333s12.266667 27.904 27.456 27.904c15.210667 0 27.477333-12.458667 27.477334-27.904 0-15.189333-12.522667-27.925333-27.477334-27.925333zM281.429333 293.056h501.461334v-43.349333H281.429333zM513.493333 271.381333h40V24.810667H513.493333zM377.962667 87.466667l171.818666 171.52-29.738666 30.72-171.797334-171.498667 29.717334-30.72M695.232 89.664l28.8 31.594667-176.64 166.314666-28.842667-31.594666 176.682667-166.314667" /></svg>